<?xml version="1.0" standalone="no"?>
<!DOCTYPE svg PUBLIC "-//W3C//DTD SVG 20010904//EN"
 "http://www.w3.org/TR/2001/REC-SVG-20010904/DTD/svg10.dtd">
<svg version="1.0" xmlns="http://www.w3.org/2000/svg"
 width="1500.000000pt" height="1500.000000pt" viewBox="0 0 1500.000000 1500.000000"
 preserveAspectRatio="xMidYMid meet">

<g transform="translate(0.000000,1500.000000) scale(0.100000,-0.100000)"
fill="#000000" stroke="none">
<path d="M7200 14994 c-25 -2 -128 -8 -230 -14 -215 -13 -501 -47 -750 -90
-2038 -351 -3832 -1525 -4986 -3265 -631 -951 -1029 -2025 -1179 -3180 -64
-493 -72 -1151 -19 -1678 160 -1609 810 -3083 1890 -4287 221 -247 567 -575
849 -807 461 -378 1068 -754 1610 -998 891 -401 1753 -611 2735 -665 120 -6
1541 -10 4033 -10 l3848 0 -4 3928 c-3 4233 0 3998 -52 4445 -251 2169 -1441
4122 -3260 5349 -699 472 -1480 824 -2299 1038 -404 105 -867 183 -1286 216
-173 14 -800 26 -900 18z m-2739 -5114 c254 -29 525 -160 720 -347 136 -130
195 -216 317 -462 121 -242 181 -340 296 -486 352 -441 864 -729 1426 -800
162 -21 471 -16 620 9 446 77 831 271 1149 581 220 214 324 362 481 681 70
142 131 251 171 304 128 174 287 304 484 400 213 105 377 137 640 127 160 -6
232 -19 372 -68 438 -155 758 -520 858 -979 25 -115 30 -354 11 -472 -29 -177
-105 -374 -255 -663 -432 -830 -1068 -1493 -1881 -1961 -597 -343 -1279 -552
-2007 -615 -184 -16 -737 -7 -913 15 -835 103 -1592 394 -2256 868 -695 495
-1266 1204 -1613 2002 -93 213 -103 260 -108 502 -6 243 3 335 47 467 87 259
250 488 463 648 154 116 423 229 595 249 99 11 285 11 383 0z"/>
</g>
</svg>
